<svg xmlns="http://www.w3.org/2000/svg" width="472.217" height="72.4" viewBox="0 0 472.217 72.4"><path d="M-199-35.52c-10.16-1.04-14.24-1.28-14.24-4.32,0-2.32,2.48-3.84,10.16-3.84,7.36,0,10.16,1.6,10.16,4.8h22.24c0-10.56-8.4-18.24-32.24-18.24C-224.6-57.12-235-51.2-235-38.88c0,11.6,7.12,15.36,24.56,17.6,17.68,2.24,20,2.24,20,5.2,0,2.72-3.12,3.76-10.4,3.76-9.04,0-12.72-1.52-12.72-5.84h-22.96c0,12.16,9.12,19.36,34.4,19.36,22,0,35.12-4.16,35.12-18.96C-167-32.64-179.96-33.6-199-35.52ZM-125.32-32V-42.64H-137.8V-53.68h-19.68v11.04h-7.92V-32h7.92v14.24c0,15.28,5.84,18.48,23.28,18.48a77.232,77.232,0,0,0,8.88-.64V-12.64c-10.64.56-12.48.16-12.48-5.12V-32Zm30.4-11.76c-14.24,0-23.36,3.68-24.88,14.08h17.6c.56-2.64,2.96-3.52,7.28-3.52,5.6,0,6.96,2,6.96,5.92v1.04c-28.16-1.36-34.16,4.56-34.16,14.48,0,8.8,6.48,12.96,18.56,12.96,7.68,0,12.72-2.56,15.6-5.44V0h19.68V-27.28C-68.28-41.36-80.84-43.76-94.92-43.76Zm6.96,32.08a14.218,14.218,0,0,1-9.76,3.44c-2.56,0-5.52-.56-5.52-3.84,0-4.4,5.44-4.72,15.28-4.24Zm58.64-30.96L-37.96-19.6l-9.28-23.04H-67.48L-47.08-.32l-7.6,13.68h20l25.6-56Zm79.36,7.12C39.88-36.56,35.8-36.8,35.8-39.84c0-2.32,2.48-3.84,10.16-3.84,7.36,0,10.16,1.6,10.16,4.8H78.36c0-10.56-8.4-18.24-32.24-18.24-21.68,0-32.08,5.92-32.08,18.24,0,11.6,7.12,15.36,24.56,17.6,17.68,2.24,20,2.24,20,5.2,0,2.72-3.12,3.76-10.4,3.76-9.04,0-12.72-1.52-12.72-5.84H12.52C12.52-6,21.64,1.2,46.92,1.2c22,0,35.12-4.16,35.12-18.96C82.04-32.64,69.08-33.6,50.04-35.52Zm61.6-8.24c-14.24,0-23.36,3.68-24.88,14.08h17.6c.56-2.64,2.96-3.52,7.28-3.52,5.6,0,6.96,2,6.96,5.92v1.04C90.44-27.6,84.44-21.68,84.44-11.76,84.44-2.96,90.92,1.2,103,1.2c7.68,0,12.72-2.56,15.6-5.44V0h19.68V-27.28C138.28-41.36,125.72-43.76,111.64-43.76Zm6.96,32.08a14.218,14.218,0,0,1-9.76,3.44c-2.56,0-5.52-.56-5.52-3.84,0-4.4,5.44-4.72,15.28-4.24Zm60.64-35.44V-58.48c-3.04-.24-6.32-.56-9.92-.56-15.92,0-21.6,4.24-21.6,16.4h-7.04V-32h7.04V0H167.4V-32h11.12V-42.64H167.4C167.4-48.08,173-47.36,179.24-47.12Zm56.4,29.76c1.12-19.84-14.48-26.4-27.36-26.4-13.84,0-28.24,6-28.24,22.48S194.6,1.2,208.68,1.2c11.92,0,23.6-3.92,26.32-15.6H217c-1.6,2.32-4.24,3.84-8.32,3.84-5.84,0-8.88-2.8-9.92-6.8ZM208.28-32c5.04,0,7.68,2.4,8.8,6.32H198.84C199.96-29.36,202.68-32,208.28-32Z" transform="translate(236.52 59.04)" fill="#4dd5d5"/></svg>